<?xml version="1.0" encoding="UTF-8" standalone="no"?>
<!DOCTYPE svg PUBLIC "-//W3C//DTD SVG 1.1//EN"
 "http://www.w3.org/Graphics/SVG/1.1/DTD/svg11.dtd">
<!-- Generated by graphviz version 2.38.0 (20140413.2041)
 -->
<!-- Title: controllers_diagram Pages: 1 -->
<svg width="723pt" height="664pt"
 viewBox="0.00 0.00 722.50 664.00" xmlns="http://www.w3.org/2000/svg" xmlns:xlink="http://www.w3.org/1999/xlink">
<g id="graph0" class="graph" transform="scale(1 1) rotate(0) translate(276.5 405.5)">
<title>controllers_diagram</title>
<polygon fill="none" stroke="none" points="-276.5,258.5 -276.5,-405.5 446,-405.5 446,258.5 -276.5,258.5"/>
<!-- _diagram_info -->
<g id="node1" class="node"><title>_diagram_info</title>
<text text-anchor="start" x="93" y="140.4" font-family="Times,serif" font-size="13.00">Controllers diagram</text>
<text text-anchor="start" x="93" y="154.4" font-family="Times,serif" font-size="13.00">Date: Mar 03 2017 &#45; 23:04</text>
<text text-anchor="start" x="93" y="168.4" font-family="Times,serif" font-size="13.00">Migration version: 20170304014952</text>
<text text-anchor="start" x="93" y="182.4" font-family="Times,serif" font-size="13.00">Generated by RailRoady 1.5.2</text>
<text text-anchor="start" x="93" y="196.4" font-family="Times,serif" font-size="13.00">http://railroady.prestonlee.com</text>
</g>
<!-- QuestionsController -->
<g id="node2" class="node"><title>QuestionsController</title>
<path fill="none" stroke="black" d="M-56,118.5C-56,118.5 46,118.5 46,118.5 52,118.5 58,112.5 58,106.5 58,106.5 58,-82.5 58,-82.5 58,-88.5 52,-94.5 46,-94.5 46,-94.5 -56,-94.5 -56,-94.5 -62,-94.5 -68,-88.5 -68,-82.5 -68,-82.5 -68,106.5 -68,106.5 -68,112.5 -62,118.5 -56,118.5"/>
<text text-anchor="middle" x="-5" y="-79.3" font-family="Times,serif" font-size="14.00">QuestionsController</text>
<polyline fill="none" stroke="black" points="-68,-71.5 58,-71.5 "/>
<text text-anchor="start" x="-60" y="-56.3" font-family="Times,serif" font-size="14.00">create</text>
<text text-anchor="start" x="-60" y="-41.3" font-family="Times,serif" font-size="14.00">destroy</text>
<text text-anchor="start" x="-60" y="-26.3" font-family="Times,serif" font-size="14.00">edit</text>
<text text-anchor="start" x="-60" y="-11.3" font-family="Times,serif" font-size="14.00">index</text>
<text text-anchor="start" x="-60" y="3.7" font-family="Times,serif" font-size="14.00">new</text>
<text text-anchor="start" x="-60" y="18.7" font-family="Times,serif" font-size="14.00">show</text>
<text text-anchor="start" x="-60" y="33.7" font-family="Times,serif" font-size="14.00">update</text>
<polyline fill="none" stroke="black" points="-68,41.5 58,41.5 "/>
<polyline fill="none" stroke="black" points="-68,65.5 58,65.5 "/>
<text text-anchor="start" x="-60" y="80.7" font-family="Times,serif" font-size="14.00">_layout</text>
<text text-anchor="start" x="-60" y="95.7" font-family="Times,serif" font-size="14.00">question_params</text>
<text text-anchor="start" x="-60" y="110.7" font-family="Times,serif" font-size="14.00">set_question</text>
</g>
<!-- ChoicesController -->
<g id="node3" class="node"><title>ChoicesController</title>
<path fill="none" stroke="black" d="M97,84.5C97,84.5 189,84.5 189,84.5 195,84.5 201,78.5 201,72.5 201,72.5 201,-116.5 201,-116.5 201,-122.5 195,-128.5 189,-128.5 189,-128.5 97,-128.5 97,-128.5 91,-128.5 85,-122.5 85,-116.5 85,-116.5 85,72.5 85,72.5 85,78.5 91,84.5 97,84.5"/>
<text text-anchor="middle" x="143" y="-113.3" font-family="Times,serif" font-size="14.00">ChoicesController</text>
<polyline fill="none" stroke="black" points="85,-105.5 201,-105.5 "/>
<text text-anchor="start" x="93" y="-90.3" font-family="Times,serif" font-size="14.00">create</text>
<text text-anchor="start" x="93" y="-75.3" font-family="Times,serif" font-size="14.00">destroy</text>
<text text-anchor="start" x="93" y="-60.3" font-family="Times,serif" font-size="14.00">edit</text>
<text text-anchor="start" x="93" y="-45.3" font-family="Times,serif" font-size="14.00">index</text>
<text text-anchor="start" x="93" y="-30.3" font-family="Times,serif" font-size="14.00">new</text>
<text text-anchor="start" x="93" y="-15.3" font-family="Times,serif" font-size="14.00">show</text>
<text text-anchor="start" x="93" y="-0.3" font-family="Times,serif" font-size="14.00">update</text>
<polyline fill="none" stroke="black" points="85,7.5 201,7.5 "/>
<polyline fill="none" stroke="black" points="85,31.5 201,31.5 "/>
<text text-anchor="start" x="93" y="46.7" font-family="Times,serif" font-size="14.00">_layout</text>
<text text-anchor="start" x="93" y="61.7" font-family="Times,serif" font-size="14.00">choice_params</text>
<text text-anchor="start" x="93" y="76.7" font-family="Times,serif" font-size="14.00">set_choice</text>
</g>
<!-- ApplicationController -->
<g id="node4" class="node"><title>ApplicationController</title>
<path fill="none" stroke="black" d="M318,-307C318,-307 430,-307 430,-307 436,-307 442,-313 442,-319 442,-319 442,-389 442,-389 442,-395 436,-401 430,-401 430,-401 318,-401 318,-401 312,-401 306,-395 306,-389 306,-389 306,-319 306,-319 306,-313 312,-307 318,-307"/>
<text text-anchor="middle" x="374" y="-385.8" font-family="Times,serif" font-size="14.00">ApplicationController</text>
<polyline fill="none" stroke="black" points="306,-378 442,-378 "/>
<polyline fill="none" stroke="black" points="306,-354 442,-354 "/>
<polyline fill="none" stroke="black" points="306,-330 442,-330 "/>
<text text-anchor="start" x="314" y="-314.8" font-family="Times,serif" font-size="14.00">_layout</text>
</g>
<!-- Users::UnlocksController -->
<g id="node5" class="node"><title>Users::UnlocksController</title>
<path fill="none" stroke="black" d="M-242.5,-256C-242.5,-256 -111.5,-256 -111.5,-256 -105.5,-256 -99.5,-262 -99.5,-268 -99.5,-268 -99.5,-338 -99.5,-338 -99.5,-344 -105.5,-350 -111.5,-350 -111.5,-350 -242.5,-350 -242.5,-350 -248.5,-350 -254.5,-344 -254.5,-338 -254.5,-338 -254.5,-268 -254.5,-268 -254.5,-262 -248.5,-256 -242.5,-256"/>
<text text-anchor="middle" x="-177" y="-334.8" font-family="Times,serif" font-size="14.00">Users::UnlocksController</text>
<polyline fill="none" stroke="black" points="-254.5,-327 -99.5,-327 "/>
<polyline fill="none" stroke="black" points="-254.5,-303 -99.5,-303 "/>
<polyline fill="none" stroke="black" points="-254.5,-279 -99.5,-279 "/>
<text text-anchor="start" x="-246.5" y="-263.8" font-family="Times,serif" font-size="14.00">_layout</text>
</g>
<!-- Users::ConfirmationsController -->
<g id="node6" class="node"><title>Users::ConfirmationsController</title>
<path fill="none" stroke="black" d="M250.5,84C250.5,84 415.5,84 415.5,84 421.5,84 427.5,78 427.5,72 427.5,72 427.5,2 427.5,2 427.5,-4 421.5,-10 415.5,-10 415.5,-10 250.5,-10 250.5,-10 244.5,-10 238.5,-4 238.5,2 238.5,2 238.5,72 238.5,72 238.5,78 244.5,84 250.5,84"/>
<text text-anchor="middle" x="333" y="5.2" font-family="Times,serif" font-size="14.00">Users::ConfirmationsController</text>
<polyline fill="none" stroke="black" points="238.5,13 427.5,13 "/>
<polyline fill="none" stroke="black" points="238.5,37 427.5,37 "/>
<polyline fill="none" stroke="black" points="238.5,61 427.5,61 "/>
<text text-anchor="start" x="246.5" y="76.2" font-family="Times,serif" font-size="14.00">_layout</text>
</g>
<!-- Users::PasswordsController -->
<g id="node7" class="node"><title>Users::PasswordsController</title>
<path fill="none" stroke="black" d="M-260.5,-120C-260.5,-120 -117.5,-120 -117.5,-120 -111.5,-120 -105.5,-126 -105.5,-132 -105.5,-132 -105.5,-202 -105.5,-202 -105.5,-208 -111.5,-214 -117.5,-214 -117.5,-214 -260.5,-214 -260.5,-214 -266.5,-214 -272.5,-208 -272.5,-202 -272.5,-202 -272.5,-132 -272.5,-132 -272.5,-126 -266.5,-120 -260.5,-120"/>
<text text-anchor="middle" x="-189" y="-198.8" font-family="Times,serif" font-size="14.00">Users::PasswordsController</text>
<polyline fill="none" stroke="black" points="-272.5,-191 -105.5,-191 "/>
<polyline fill="none" stroke="black" points="-272.5,-167 -105.5,-167 "/>
<polyline fill="none" stroke="black" points="-272.5,-143 -105.5,-143 "/>
<text text-anchor="start" x="-264.5" y="-127.8" font-family="Times,serif" font-size="14.00">_layout</text>
</g>
<!-- Users::OmniauthCallbacksController -->
<g id="node8" class="node"><title>Users::OmniauthCallbacksController</title>
<path fill="none" stroke="black" d="M182,-171C182,-171 376,-171 376,-171 382,-171 388,-177 388,-183 388,-183 388,-253 388,-253 388,-259 382,-265 376,-265 376,-265 182,-265 182,-265 176,-265 170,-259 170,-253 170,-253 170,-183 170,-183 170,-177 176,-171 182,-171"/>
<text text-anchor="middle" x="279" y="-249.8" font-family="Times,serif" font-size="14.00">Users::OmniauthCallbacksController</text>
<polyline fill="none" stroke="black" points="170,-242 388,-242 "/>
<polyline fill="none" stroke="black" points="170,-218 388,-218 "/>
<polyline fill="none" stroke="black" points="170,-194 388,-194 "/>
<text text-anchor="start" x="178" y="-178.8" font-family="Times,serif" font-size="14.00">_layout</text>
</g>
<!-- Users::RegistrationsController -->
<g id="node9" class="node"><title>Users::RegistrationsController</title>
<path fill="none" stroke="black" d="M-243,254C-243,254 -85,254 -85,254 -79,254 -73,248 -73,242 -73,242 -73,172 -73,172 -73,166 -79,160 -85,160 -85,160 -243,160 -243,160 -249,160 -255,166 -255,172 -255,172 -255,242 -255,242 -255,248 -249,254 -243,254"/>
<text text-anchor="middle" x="-164" y="175.2" font-family="Times,serif" font-size="14.00">Users::RegistrationsController</text>
<polyline fill="none" stroke="black" points="-255,183 -73,183 "/>
<polyline fill="none" stroke="black" points="-255,207 -73,207 "/>
<polyline fill="none" stroke="black" points="-255,231 -73,231 "/>
<text text-anchor="start" x="-247" y="246.2" font-family="Times,serif" font-size="14.00">_layout</text>
</g>
<!-- Users::SessionsController -->
<g id="node10" class="node"><title>Users::SessionsController</title>
<path fill="none" stroke="black" d="M-242.5,16C-242.5,16 -109.5,16 -109.5,16 -103.5,16 -97.5,10 -97.5,4 -97.5,4 -97.5,-66 -97.5,-66 -97.5,-72 -103.5,-78 -109.5,-78 -109.5,-78 -242.5,-78 -242.5,-78 -248.5,-78 -254.5,-72 -254.5,-66 -254.5,-66 -254.5,4 -254.5,4 -254.5,10 -248.5,16 -242.5,16"/>
<text text-anchor="middle" x="-176" y="-62.8" font-family="Times,serif" font-size="14.00">Users::SessionsController</text>
<polyline fill="none" stroke="black" points="-254.5,-55 -97.5,-55 "/>
<polyline fill="none" stroke="black" points="-254.5,-31 -97.5,-31 "/>
<polyline fill="none" stroke="black" points="-254.5,-7 -97.5,-7 "/>
<text text-anchor="start" x="-246.5" y="8.2" font-family="Times,serif" font-size="14.00">_layout</text>
</g>
<!-- QuizzesController -->
<g id="node11" class="node"><title>QuizzesController</title>
<path fill="none" stroke="black" d="M-56,-136.5C-56,-136.5 36,-136.5 36,-136.5 42,-136.5 48,-142.5 48,-148.5 48,-148.5 48,-337.5 48,-337.5 48,-343.5 42,-349.5 36,-349.5 36,-349.5 -56,-349.5 -56,-349.5 -62,-349.5 -68,-343.5 -68,-337.5 -68,-337.5 -68,-148.5 -68,-148.5 -68,-142.5 -62,-136.5 -56,-136.5"/>
<text text-anchor="middle" x="-10" y="-334.3" font-family="Times,serif" font-size="14.00">QuizzesController</text>
<polyline fill="none" stroke="black" points="-68,-326.5 48,-326.5 "/>
<text text-anchor="start" x="-60" y="-311.3" font-family="Times,serif" font-size="14.00">create</text>
<text text-anchor="start" x="-60" y="-296.3" font-family="Times,serif" font-size="14.00">destroy</text>
<text text-anchor="start" x="-60" y="-281.3" font-family="Times,serif" font-size="14.00">edit</text>
<text text-anchor="start" x="-60" y="-266.3" font-family="Times,serif" font-size="14.00">index</text>
<text text-anchor="start" x="-60" y="-251.3" font-family="Times,serif" font-size="14.00">new</text>
<text text-anchor="start" x="-60" y="-236.3" font-family="Times,serif" font-size="14.00">show</text>
<text text-anchor="start" x="-60" y="-221.3" font-family="Times,serif" font-size="14.00">update</text>
<polyline fill="none" stroke="black" points="-68,-213.5 48,-213.5 "/>
<polyline fill="none" stroke="black" points="-68,-189.5 48,-189.5 "/>
<text text-anchor="start" x="-60" y="-174.3" font-family="Times,serif" font-size="14.00">_layout</text>
<text text-anchor="start" x="-60" y="-159.3" font-family="Times,serif" font-size="14.00">quiz_params</text>
<text text-anchor="start" x="-60" y="-144.3" font-family="Times,serif" font-size="14.00">set_quiz</text>
</g>
</g>
</svg>
