<?xml version="1.0" encoding="UTF-8" standalone="no"?>
<!DOCTYPE svg PUBLIC "-//W3C//DTD SVG 1.1//EN"
 "http://www.w3.org/Graphics/SVG/1.1/DTD/svg11.dtd">
<!-- Generated by graphviz version 2.38.0 (20140413.2041)
 -->
<!-- Title: models_diagram Pages: 1 -->
<svg width="468pt" height="374pt"
 viewBox="0.00 0.00 468.34 374.00" xmlns="http://www.w3.org/2000/svg" xmlns:xlink="http://www.w3.org/1999/xlink">
<g id="graph0" class="graph" transform="scale(1 1) rotate(0) translate(4 370)">
<title>models_diagram</title>
<polygon fill="none" stroke="none" points="-4,4 -4,-370 464.343,-370 464.343,4 -4,4"/>
<!-- _diagram_info -->
<g id="node1" class="node"><title>_diagram_info</title>
<text text-anchor="start" x="8" y="-351.6" font-family="Times,serif" font-size="13.00">Models diagram</text>
<text text-anchor="start" x="8" y="-337.6" font-family="Times,serif" font-size="13.00">Date: Mar 03 2017 &#45; 23:04</text>
<text text-anchor="start" x="8" y="-323.6" font-family="Times,serif" font-size="13.00">Migration version: 20170304014952</text>
<text text-anchor="start" x="8" y="-309.6" font-family="Times,serif" font-size="13.00">Generated by RailRoady 1.5.2</text>
<text text-anchor="start" x="8" y="-295.6" font-family="Times,serif" font-size="13.00">http://railroady.prestonlee.com</text>
</g>
<!-- Quiz -->
<g id="node2" class="node"><title>Quiz</title>
<ellipse fill="none" stroke="black" cx="260" cy="-327" rx="27.8951" ry="18"/>
<text text-anchor="middle" x="260" y="-323.3" font-family="Times,serif" font-size="14.00">Quiz</text>
</g>
<!-- UserQuiz -->
<g id="node6" class="node"><title>UserQuiz</title>
<ellipse fill="none" stroke="black" cx="221" cy="-18" rx="44.393" ry="18"/>
<text text-anchor="middle" x="221" y="-14.3" font-family="Times,serif" font-size="14.00">UserQuiz</text>
</g>
<!-- Quiz&#45;&gt;UserQuiz -->
<g id="edge1" class="edge"><title>Quiz&#45;&gt;UserQuiz</title>
<path fill="none" stroke="#4d45c2" d="M256.736,-300.31C249.451,-242.96 231.918,-104.941 224.456,-46.2025"/>
<ellipse fill="none" stroke="#4d45c2" cx="257.287" cy="-304.647" rx="4.00001" ry="4.00001"/>
<polygon fill="#4d45c2" stroke="#4d45c2" points="224.445,-46.1149 227.648,-35.6275 223.814,-41.1547 223.184,-36.1946 223.184,-36.1946 223.184,-36.1946 223.814,-41.1547 218.72,-36.7617 224.445,-46.1149 224.445,-46.1149"/>
</g>
<!-- User -->
<g id="node7" class="node"><title>User</title>
<ellipse fill="none" stroke="black" cx="278" cy="-90" rx="27.0966" ry="18"/>
<text text-anchor="middle" x="278" y="-86.3" font-family="Times,serif" font-size="14.00">User</text>
</g>
<!-- Quiz&#45;&gt;User -->
<g id="edge2" class="edge"><title>Quiz&#45;&gt;User</title>
<path fill="none" stroke="#df688c" d="M262.104,-298.536C265.575,-253.221 272.46,-163.324 275.917,-118.19"/>
<polygon fill="#df688c" stroke="#df688c" points="262.087,-298.749 256.837,-308.376 261.705,-303.734 261.324,-308.72 261.324,-308.72 261.324,-308.72 261.705,-303.734 265.81,-309.064 262.087,-298.749 262.087,-298.749"/>
<polygon fill="#df688c" stroke="#df688c" points="275.935,-117.959 281.186,-108.332 276.317,-112.974 276.699,-107.989 276.699,-107.989 276.699,-107.989 276.317,-112.974 272.212,-107.645 275.935,-117.959 275.935,-117.959"/>
</g>
<!-- Question -->
<g id="node8" class="node"><title>Question</title>
<ellipse fill="none" stroke="black" cx="330" cy="-234" rx="42.4939" ry="18"/>
<text text-anchor="middle" x="330" y="-230.3" font-family="Times,serif" font-size="14.00">Question</text>
</g>
<!-- Quiz&#45;&gt;Question -->
<g id="edge3" class="edge"><title>Quiz&#45;&gt;Question</title>
<path fill="none" stroke="#9ba60e" d="M276.927,-303.995C287.242,-290.585 300.444,-273.423 311.099,-259.571"/>
<ellipse fill="none" stroke="#9ba60e" cx="274.313" cy="-307.393" rx="4.00002" ry="4.00002"/>
<polygon fill="#9ba60e" stroke="#9ba60e" points="311.259,-259.363 320.923,-254.18 314.308,-255.4 317.356,-251.437 317.356,-251.437 317.356,-251.437 314.308,-255.4 313.79,-248.693 311.259,-259.363 311.259,-259.363"/>
</g>
<!-- UserChoice -->
<g id="node3" class="node"><title>UserChoice</title>
<ellipse fill="none" stroke="black" cx="335" cy="-18" rx="51.9908" ry="18"/>
<text text-anchor="middle" x="335" y="-14.3" font-family="Times,serif" font-size="14.00">UserChoice</text>
</g>
<!-- Choice -->
<g id="node4" class="node"><title>Choice</title>
<ellipse fill="none" stroke="black" cx="330" cy="-162" rx="35.9954" ry="18"/>
<text text-anchor="middle" x="330" y="-158.3" font-family="Times,serif" font-size="14.00">Choice</text>
</g>
<!-- Choice&#45;&gt;UserChoice -->
<g id="edge4" class="edge"><title>Choice&#45;&gt;UserChoice</title>
<path fill="none" stroke="#c68553" d="M330.896,-135.558C331.78,-110.444 333.128,-72.164 334.035,-46.3932"/>
<ellipse fill="none" stroke="#c68553" cx="330.744" cy="-139.874" rx="4" ry="4"/>
<polygon fill="#c68553" stroke="#c68553" points="334.043,-46.1831 338.892,-36.3477 334.219,-41.1862 334.395,-36.1893 334.395,-36.1893 334.395,-36.1893 334.219,-41.1862 329.898,-36.0309 334.043,-46.1831 334.043,-46.1831"/>
</g>
<!-- Choice&#45;&gt;User -->
<g id="edge5" class="edge"><title>Choice&#45;&gt;User</title>
<path fill="none" stroke="#d02595" d="M311.778,-136.471C306.607,-129.509 300.983,-121.939 295.835,-115.008"/>
<polygon fill="#d02595" stroke="#d02595" points="311.976,-136.737 314.327,-147.448 314.958,-140.751 317.939,-144.765 317.939,-144.765 317.939,-144.765 314.958,-140.751 321.552,-142.081 311.976,-136.737 311.976,-136.737"/>
<polygon fill="#d02595" stroke="#d02595" points="295.601,-114.693 293.25,-103.982 292.619,-110.68 289.637,-106.666 289.637,-106.666 289.637,-106.666 292.619,-110.68 286.025,-109.349 295.601,-114.693 295.601,-114.693"/>
</g>
<!-- ApplicationRecord -->
<g id="node5" class="node"><title>ApplicationRecord</title>
<ellipse fill="none" stroke="black" cx="383" cy="-327" rx="77.1866" ry="18"/>
<text text-anchor="middle" x="383" y="-323.3" font-family="Times,serif" font-size="14.00">ApplicationRecord</text>
</g>
<!-- User&#45;&gt;UserChoice -->
<g id="edge7" class="edge"><title>User&#45;&gt;UserChoice</title>
<path fill="none" stroke="#237d30" d="M295.595,-67.3922C301.713,-59.8791 308.62,-51.3964 314.923,-43.6555"/>
<ellipse fill="none" stroke="#237d30" cx="292.894" cy="-70.7093" rx="4.00002" ry="4.00002"/>
<polygon fill="#237d30" stroke="#237d30" points="315.146,-43.3822 324.95,-38.4693 318.303,-39.505 321.46,-35.6278 321.46,-35.6278 321.46,-35.6278 318.303,-39.505 317.971,-32.7864 315.146,-43.3822 315.146,-43.3822"/>
</g>
<!-- User&#45;&gt;UserQuiz -->
<g id="edge6" class="edge"><title>User&#45;&gt;UserQuiz</title>
<path fill="none" stroke="#fe1758" d="M260.405,-67.3922C254.287,-59.8791 247.38,-51.3964 241.077,-43.6555"/>
<ellipse fill="none" stroke="#fe1758" cx="263.106" cy="-70.7093" rx="4.00002" ry="4.00002"/>
<polygon fill="#fe1758" stroke="#fe1758" points="240.854,-43.3822 238.029,-32.7864 237.697,-39.505 234.54,-35.6278 234.54,-35.6278 234.54,-35.6278 237.697,-39.505 231.05,-38.4693 240.854,-43.3822 240.854,-43.3822"/>
</g>
<!-- Question&#45;&gt;Choice -->
<g id="edge8" class="edge"><title>Question&#45;&gt;Choice</title>
<path fill="none" stroke="#751ab3" d="M330,-207.64C330,-202.063 330,-196.132 330,-190.476"/>
<ellipse fill="none" stroke="#751ab3" cx="330" cy="-211.697" rx="4" ry="4"/>
<polygon fill="#751ab3" stroke="#751ab3" points="330,-190.104 334.5,-180.104 330,-185.104 330,-180.104 330,-180.104 330,-180.104 330,-185.104 325.5,-180.104 330,-190.104 330,-190.104"/>
</g>
</g>
</svg>
