<?xml version="1.0" encoding="UTF-8" standalone="no"?>
<!DOCTYPE svg PUBLIC "-//W3C//DTD SVG 1.1//EN"
 "http://www.w3.org/Graphics/SVG/1.1/DTD/svg11.dtd">
<!-- Generated by graphviz version 2.38.0 (20140413.2041)
 -->
<!-- Title: models_diagram Pages: 1 -->
<svg width="716pt" height="852pt"
 viewBox="0.00 0.00 716.00 852.00" xmlns="http://www.w3.org/2000/svg" xmlns:xlink="http://www.w3.org/1999/xlink">
<g id="graph0" class="graph" transform="scale(1 1) rotate(0) translate(4 848)">
<title>models_diagram</title>
<polygon fill="none" stroke="none" points="-4,4 -4,-848 712,-848 712,4 -4,4"/>
<!-- _diagram_info -->
<g id="node1" class="node"><title>_diagram_info</title>
<text text-anchor="start" x="8" y="-815.1" font-family="Times,serif" font-size="13.00">Models diagram</text>
<text text-anchor="start" x="8" y="-801.1" font-family="Times,serif" font-size="13.00">Date: Mar 03 2017 &#45; 23:04</text>
<text text-anchor="start" x="8" y="-787.1" font-family="Times,serif" font-size="13.00">Migration version: 20170304014952</text>
<text text-anchor="start" x="8" y="-773.1" font-family="Times,serif" font-size="13.00">Generated by RailRoady 1.5.2</text>
<text text-anchor="start" x="8" y="-759.1" font-family="Times,serif" font-size="13.00">http://railroady.prestonlee.com</text>
</g>
<!-- Quiz -->
<g id="node2" class="node"><title>Quiz</title>
<path fill="none" stroke="black" d="M244,-737.5C244,-737.5 464,-737.5 464,-737.5 470,-737.5 476,-743.5 476,-749.5 476,-749.5 476,-831.5 476,-831.5 476,-837.5 470,-843.5 464,-843.5 464,-843.5 244,-843.5 244,-843.5 238,-843.5 232,-837.5 232,-831.5 232,-831.5 232,-749.5 232,-749.5 232,-743.5 238,-737.5 244,-737.5"/>
<text text-anchor="middle" x="354" y="-828.3" font-family="Times,serif" font-size="14.00">Quiz</text>
<polyline fill="none" stroke="black" points="232,-820.5 476,-820.5 "/>
<text text-anchor="start" x="240" y="-805.3" font-family="Times,serif" font-size="14.00">id :integer</text>
<text text-anchor="start" x="240" y="-790.3" font-family="Times,serif" font-size="14.00">name :character varying</text>
<text text-anchor="start" x="240" y="-775.3" font-family="Times,serif" font-size="14.00">description :text</text>
<text text-anchor="start" x="240" y="-760.3" font-family="Times,serif" font-size="14.00">created_at :timestamp without time zone</text>
<text text-anchor="start" x="240" y="-745.3" font-family="Times,serif" font-size="14.00">updated_at :timestamp without time zone</text>
</g>
<!-- UserQuiz -->
<g id="node6" class="node"><title>UserQuiz</title>
<path fill="none" stroke="black" d="M187,-0.5C187,-0.5 407,-0.5 407,-0.5 413,-0.5 419,-6.5 419,-12.5 419,-12.5 419,-109.5 419,-109.5 419,-115.5 413,-121.5 407,-121.5 407,-121.5 187,-121.5 187,-121.5 181,-121.5 175,-115.5 175,-109.5 175,-109.5 175,-12.5 175,-12.5 175,-6.5 181,-0.5 187,-0.5"/>
<text text-anchor="middle" x="297" y="-106.3" font-family="Times,serif" font-size="14.00">UserQuiz</text>
<polyline fill="none" stroke="black" points="175,-98.5 419,-98.5 "/>
<text text-anchor="start" x="183" y="-83.3" font-family="Times,serif" font-size="14.00">id :integer</text>
<text text-anchor="start" x="183" y="-68.3" font-family="Times,serif" font-size="14.00">score :integer</text>
<text text-anchor="start" x="183" y="-53.3" font-family="Times,serif" font-size="14.00">user_id :integer</text>
<text text-anchor="start" x="183" y="-38.3" font-family="Times,serif" font-size="14.00">quiz_id :integer</text>
<text text-anchor="start" x="183" y="-23.3" font-family="Times,serif" font-size="14.00">created_at :timestamp without time zone</text>
<text text-anchor="start" x="183" y="-8.3" font-family="Times,serif" font-size="14.00">updated_at :timestamp without time zone</text>
</g>
<!-- Quiz&#45;&gt;UserQuiz -->
<g id="edge1" class="edge"><title>Quiz&#45;&gt;UserQuiz</title>
<path fill="none" stroke="#7420aa" d="M332.826,-729.515C295.925,-617.108 227.045,-367.22 263,-158 264.517,-149.17 266.766,-140.075 269.397,-131.164"/>
<ellipse fill="none" stroke="#7420aa" cx="334.168" cy="-733.571" rx="4.00001" ry="4.00001"/>
<polygon fill="#7420aa" stroke="#7420aa" points="269.406,-131.136 276.682,-122.931 270.896,-126.363 272.386,-121.59 272.386,-121.59 272.386,-121.59 270.896,-126.363 268.091,-120.249 269.406,-131.136 269.406,-131.136"/>
</g>
<!-- User -->
<g id="node7" class="node"><title>User</title>
<path fill="none" stroke="black" d="M283.5,-158.5C283.5,-158.5 572.5,-158.5 572.5,-158.5 578.5,-158.5 584.5,-164.5 584.5,-170.5 584.5,-170.5 584.5,-387.5 584.5,-387.5 584.5,-393.5 578.5,-399.5 572.5,-399.5 572.5,-399.5 283.5,-399.5 283.5,-399.5 277.5,-399.5 271.5,-393.5 271.5,-387.5 271.5,-387.5 271.5,-170.5 271.5,-170.5 271.5,-164.5 277.5,-158.5 283.5,-158.5"/>
<text text-anchor="middle" x="428" y="-384.3" font-family="Times,serif" font-size="14.00">User</text>
<polyline fill="none" stroke="black" points="271.5,-376.5 584.5,-376.5 "/>
<text text-anchor="start" x="279.5" y="-361.3" font-family="Times,serif" font-size="14.00">id :integer</text>
<text text-anchor="start" x="279.5" y="-346.3" font-family="Times,serif" font-size="14.00">email :character varying</text>
<text text-anchor="start" x="279.5" y="-331.3" font-family="Times,serif" font-size="14.00">encrypted_password :character varying</text>
<text text-anchor="start" x="279.5" y="-316.3" font-family="Times,serif" font-size="14.00">reset_password_token :character varying</text>
<text text-anchor="start" x="279.5" y="-301.3" font-family="Times,serif" font-size="14.00">reset_password_sent_at :timestamp without time zone</text>
<text text-anchor="start" x="279.5" y="-286.3" font-family="Times,serif" font-size="14.00">remember_created_at :timestamp without time zone</text>
<text text-anchor="start" x="279.5" y="-271.3" font-family="Times,serif" font-size="14.00">sign_in_count :integer</text>
<text text-anchor="start" x="279.5" y="-256.3" font-family="Times,serif" font-size="14.00">current_sign_in_at :timestamp without time zone</text>
<text text-anchor="start" x="279.5" y="-241.3" font-family="Times,serif" font-size="14.00">last_sign_in_at :timestamp without time zone</text>
<text text-anchor="start" x="279.5" y="-226.3" font-family="Times,serif" font-size="14.00">current_sign_in_ip :inet</text>
<text text-anchor="start" x="279.5" y="-211.3" font-family="Times,serif" font-size="14.00">last_sign_in_ip :inet</text>
<text text-anchor="start" x="279.5" y="-196.3" font-family="Times,serif" font-size="14.00">name :character varying</text>
<text text-anchor="start" x="279.5" y="-181.3" font-family="Times,serif" font-size="14.00">created_at :timestamp without time zone</text>
<text text-anchor="start" x="279.5" y="-166.3" font-family="Times,serif" font-size="14.00">updated_at :timestamp without time zone</text>
</g>
<!-- Quiz&#45;&gt;User -->
<g id="edge2" class="edge"><title>Quiz&#45;&gt;User</title>
<path fill="none" stroke="#4e4a84" d="M352.029,-727.272C350.998,-656.136 353.003,-536.544 373,-436 374.748,-427.209 376.888,-418.243 379.297,-409.275"/>
<polygon fill="#4e4a84" stroke="#4e4a84" points="352.031,-727.409 347.702,-737.484 352.116,-732.409 352.201,-737.408 352.201,-737.408 352.201,-737.408 352.116,-732.409 356.701,-737.331 352.031,-727.409 352.031,-727.409"/>
<polygon fill="#4e4a84" stroke="#4e4a84" points="379.323,-409.183 386.346,-400.762 380.667,-404.368 382.012,-399.552 382.012,-399.552 382.012,-399.552 380.667,-404.368 377.678,-398.342 379.323,-409.183 379.323,-409.183"/>
</g>
<!-- Question -->
<g id="node8" class="node"><title>Question</title>
<path fill="none" stroke="black" d="M394,-594.5C394,-594.5 614,-594.5 614,-594.5 620,-594.5 626,-600.5 626,-606.5 626,-606.5 626,-688.5 626,-688.5 626,-694.5 620,-700.5 614,-700.5 614,-700.5 394,-700.5 394,-700.5 388,-700.5 382,-694.5 382,-688.5 382,-688.5 382,-606.5 382,-606.5 382,-600.5 388,-594.5 394,-594.5"/>
<text text-anchor="middle" x="504" y="-685.3" font-family="Times,serif" font-size="14.00">Question</text>
<polyline fill="none" stroke="black" points="382,-677.5 626,-677.5 "/>
<text text-anchor="start" x="390" y="-662.3" font-family="Times,serif" font-size="14.00">id :integer</text>
<text text-anchor="start" x="390" y="-647.3" font-family="Times,serif" font-size="14.00">content :text</text>
<text text-anchor="start" x="390" y="-632.3" font-family="Times,serif" font-size="14.00">quiz_id :integer</text>
<text text-anchor="start" x="390" y="-617.3" font-family="Times,serif" font-size="14.00">created_at :timestamp without time zone</text>
<text text-anchor="start" x="390" y="-602.3" font-family="Times,serif" font-size="14.00">updated_at :timestamp without time zone</text>
</g>
<!-- Quiz&#45;&gt;Question -->
<g id="edge3" class="edge"><title>Quiz&#45;&gt;Question</title>
<path fill="none" stroke="#6b7389" d="M415.427,-731.758C423.844,-723.847 432.496,-715.713 440.942,-707.775"/>
<ellipse fill="none" stroke="#6b7389" cx="412.343" cy="-734.658" rx="4.00002" ry="4.00002"/>
<polygon fill="#6b7389" stroke="#6b7389" points="441.012,-707.708 451.381,-704.138 444.656,-704.284 448.299,-700.859 448.299,-700.859 448.299,-700.859 444.656,-704.284 445.217,-697.58 441.012,-707.708 441.012,-707.708"/>
</g>
<!-- UserChoice -->
<g id="node3" class="node"><title>UserChoice</title>
<path fill="none" stroke="black" d="M476,-8C476,-8 696,-8 696,-8 702,-8 708,-14 708,-20 708,-20 708,-102 708,-102 708,-108 702,-114 696,-114 696,-114 476,-114 476,-114 470,-114 464,-108 464,-102 464,-102 464,-20 464,-20 464,-14 470,-8 476,-8"/>
<text text-anchor="middle" x="586" y="-98.8" font-family="Times,serif" font-size="14.00">UserChoice</text>
<polyline fill="none" stroke="black" points="464,-91 708,-91 "/>
<text text-anchor="start" x="472" y="-75.8" font-family="Times,serif" font-size="14.00">id :integer</text>
<text text-anchor="start" x="472" y="-60.8" font-family="Times,serif" font-size="14.00">user_id :integer</text>
<text text-anchor="start" x="472" y="-45.8" font-family="Times,serif" font-size="14.00">choice_id :integer</text>
<text text-anchor="start" x="472" y="-30.8" font-family="Times,serif" font-size="14.00">created_at :timestamp without time zone</text>
<text text-anchor="start" x="472" y="-15.8" font-family="Times,serif" font-size="14.00">updated_at :timestamp without time zone</text>
</g>
<!-- Choice -->
<g id="node4" class="node"><title>Choice</title>
<path fill="none" stroke="black" d="M394,-436.5C394,-436.5 614,-436.5 614,-436.5 620,-436.5 626,-442.5 626,-448.5 626,-448.5 626,-545.5 626,-545.5 626,-551.5 620,-557.5 614,-557.5 614,-557.5 394,-557.5 394,-557.5 388,-557.5 382,-551.5 382,-545.5 382,-545.5 382,-448.5 382,-448.5 382,-442.5 388,-436.5 394,-436.5"/>
<text text-anchor="middle" x="504" y="-542.3" font-family="Times,serif" font-size="14.00">Choice</text>
<polyline fill="none" stroke="black" points="382,-534.5 626,-534.5 "/>
<text text-anchor="start" x="390" y="-519.3" font-family="Times,serif" font-size="14.00">id :integer</text>
<text text-anchor="start" x="390" y="-504.3" font-family="Times,serif" font-size="14.00">position :integer</text>
<text text-anchor="start" x="390" y="-489.3" font-family="Times,serif" font-size="14.00">answer :text</text>
<text text-anchor="start" x="390" y="-474.3" font-family="Times,serif" font-size="14.00">question_id :integer</text>
<text text-anchor="start" x="390" y="-459.3" font-family="Times,serif" font-size="14.00">created_at :timestamp without time zone</text>
<text text-anchor="start" x="390" y="-444.3" font-family="Times,serif" font-size="14.00">updated_at :timestamp without time zone</text>
</g>
<!-- Choice&#45;&gt;UserChoice -->
<g id="edge4" class="edge"><title>Choice&#45;&gt;UserChoice</title>
<path fill="none" stroke="#442e11" d="M577.063,-429.943C583.911,-420.58 589.836,-410.529 594,-400 629.849,-309.346 615.816,-194.057 601.536,-124.253"/>
<ellipse fill="none" stroke="#442e11" cx="574.617" cy="-433.136" rx="4.00002" ry="4.00002"/>
<polygon fill="#442e11" stroke="#442e11" points="601.499,-124.076 603.836,-113.362 600.466,-119.184 599.433,-114.292 599.433,-114.292 599.433,-114.292 600.466,-119.184 595.03,-115.222 601.499,-124.076 601.499,-124.076"/>
</g>
<!-- Choice&#45;&gt;User -->
<g id="edge5" class="edge"><title>Choice&#45;&gt;User</title>
<path fill="none" stroke="#5eccb6" d="M479.648,-426.789C477.693,-421.232 475.682,-415.516 473.64,-409.714"/>
<polygon fill="#5eccb6" stroke="#5eccb6" points="479.712,-426.972 478.787,-437.899 481.372,-431.689 483.031,-436.405 483.031,-436.405 483.031,-436.405 481.372,-431.689 487.276,-434.912 479.712,-426.972 479.712,-426.972"/>
<polygon fill="#5eccb6" stroke="#5eccb6" points="473.499,-409.312 474.424,-398.385 471.839,-404.595 470.179,-399.878 470.179,-399.878 470.179,-399.878 471.839,-404.595 465.935,-401.372 473.499,-409.312 473.499,-409.312"/>
</g>
<!-- ApplicationRecord -->
<g id="node5" class="node"><title>ApplicationRecord</title>
<ellipse fill="none" stroke="black" cx="571" cy="-790.5" rx="77.1866" ry="18"/>
<text text-anchor="middle" x="571" y="-786.8" font-family="Times,serif" font-size="14.00">ApplicationRecord</text>
</g>
<!-- User&#45;&gt;UserChoice -->
<g id="edge7" class="edge"><title>User&#45;&gt;UserChoice</title>
<path fill="none" stroke="#4506d7" d="M520.308,-151.807C527.776,-141.598 535.08,-131.612 541.944,-122.229"/>
<ellipse fill="none" stroke="#4506d7" cx="517.91" cy="-155.085" rx="4.00002" ry="4.00002"/>
<polygon fill="#4506d7" stroke="#4506d7" points="541.951,-122.218 551.487,-116.804 544.903,-118.183 547.855,-114.147 547.855,-114.147 547.855,-114.147 544.903,-118.183 544.223,-111.49 541.951,-122.218 541.951,-122.218"/>
</g>
<!-- User&#45;&gt;UserQuiz -->
<g id="edge6" class="edge"><title>User&#45;&gt;UserQuiz</title>
<path fill="none" stroke="#e2b0f1" d="M351.112,-151.223C346.861,-144.214 342.676,-137.314 338.632,-130.646"/>
<ellipse fill="none" stroke="#e2b0f1" cx="353.338" cy="-154.893" rx="4.00002" ry="4.00002"/>
<polygon fill="#e2b0f1" stroke="#e2b0f1" points="338.397,-130.258 337.059,-119.374 335.804,-125.983 333.212,-121.708 333.212,-121.708 333.212,-121.708 335.804,-125.983 329.364,-124.041 338.397,-130.258 338.397,-130.258"/>
</g>
<!-- Question&#45;&gt;Choice -->
<g id="edge8" class="edge"><title>Question&#45;&gt;Choice</title>
<path fill="none" stroke="#5d1153" d="M504,-586.033C504,-580.052 504,-573.948 504,-567.882"/>
<ellipse fill="none" stroke="#5d1153" cx="504" cy="-590.144" rx="4" ry="4"/>
<polygon fill="#5d1153" stroke="#5d1153" points="504,-567.74 508.5,-557.739 504,-562.74 504,-557.74 504,-557.74 504,-557.74 504,-562.74 499.5,-557.74 504,-567.74 504,-567.74"/>
</g>
</g>
</svg>
